<mxfile host="app.diagrams.net" agent="Mozilla/5.0 (Windows NT 10.0; Win64; x64) AppleWebKit/537.36 (KHTML, like Gecko) Chrome/135.0.0.0 Safari/537.36 Edg/135.0.0.0" version="26.2.8">
  <diagram name="第 1 页" id="hOfaKDoA_8N1uv_eZpd2">
    <mxGraphModel dx="1365" dy="912" grid="1" gridSize="10" guides="1" tooltips="1" connect="1" arrows="1" fold="1" page="1" pageScale="1" pageWidth="827" pageHeight="1169" math="0" shadow="0">
      <root>
        <mxCell id="0" />
        <mxCell id="1" parent="0" />
        <mxCell id="My8QOyx157cFXyvxE8pj-18" value="" style="edgeStyle=orthogonalEdgeStyle;rounded=0;orthogonalLoop=1;jettySize=auto;html=1;" edge="1" parent="1" source="My8QOyx157cFXyvxE8pj-2" target="My8QOyx157cFXyvxE8pj-5">
          <mxGeometry relative="1" as="geometry" />
        </mxCell>
        <mxCell id="My8QOyx157cFXyvxE8pj-2" value="开始" style="rounded=1;whiteSpace=wrap;html=1;arcSize=50;" vertex="1" parent="1">
          <mxGeometry x="110" y="240" width="90" height="40" as="geometry" />
        </mxCell>
        <mxCell id="My8QOyx157cFXyvxE8pj-4" value="结束" style="rounded=1;whiteSpace=wrap;html=1;arcSize=50;" vertex="1" parent="1">
          <mxGeometry x="1010" y="240" width="90" height="40" as="geometry" />
        </mxCell>
        <mxCell id="My8QOyx157cFXyvxE8pj-7" value="" style="edgeStyle=orthogonalEdgeStyle;rounded=0;orthogonalLoop=1;jettySize=auto;html=1;" edge="1" parent="1" source="My8QOyx157cFXyvxE8pj-5" target="My8QOyx157cFXyvxE8pj-6">
          <mxGeometry relative="1" as="geometry" />
        </mxCell>
        <mxCell id="My8QOyx157cFXyvxE8pj-5" value="用户登录" style="rounded=0;whiteSpace=wrap;html=1;" vertex="1" parent="1">
          <mxGeometry x="230" y="230" width="120" height="60" as="geometry" />
        </mxCell>
        <mxCell id="My8QOyx157cFXyvxE8pj-9" value="" style="edgeStyle=orthogonalEdgeStyle;rounded=0;orthogonalLoop=1;jettySize=auto;html=1;" edge="1" parent="1" source="My8QOyx157cFXyvxE8pj-6" target="My8QOyx157cFXyvxE8pj-8">
          <mxGeometry relative="1" as="geometry" />
        </mxCell>
        <mxCell id="My8QOyx157cFXyvxE8pj-6" value="前端获取令牌" style="whiteSpace=wrap;html=1;rounded=0;" vertex="1" parent="1">
          <mxGeometry x="390" y="230" width="120" height="60" as="geometry" />
        </mxCell>
        <mxCell id="My8QOyx157cFXyvxE8pj-11" value="" style="edgeStyle=orthogonalEdgeStyle;rounded=0;orthogonalLoop=1;jettySize=auto;html=1;" edge="1" parent="1" source="My8QOyx157cFXyvxE8pj-8" target="My8QOyx157cFXyvxE8pj-10">
          <mxGeometry relative="1" as="geometry" />
        </mxCell>
        <mxCell id="My8QOyx157cFXyvxE8pj-8" value="登录路由请求后端获取用户信息与权限信息" style="rounded=0;whiteSpace=wrap;html=1;" vertex="1" parent="1">
          <mxGeometry x="540" y="230" width="120" height="60" as="geometry" />
        </mxCell>
        <mxCell id="My8QOyx157cFXyvxE8pj-16" value="" style="edgeStyle=orthogonalEdgeStyle;rounded=0;orthogonalLoop=1;jettySize=auto;html=1;" edge="1" parent="1" source="My8QOyx157cFXyvxE8pj-10" target="My8QOyx157cFXyvxE8pj-15">
          <mxGeometry relative="1" as="geometry" />
        </mxCell>
        <mxCell id="My8QOyx157cFXyvxE8pj-10" value="存储到pinia" style="whiteSpace=wrap;html=1;rounded=0;" vertex="1" parent="1">
          <mxGeometry x="690" y="230" width="120" height="60" as="geometry" />
        </mxCell>
        <mxCell id="My8QOyx157cFXyvxE8pj-17" style="edgeStyle=orthogonalEdgeStyle;rounded=0;orthogonalLoop=1;jettySize=auto;html=1;" edge="1" parent="1" source="My8QOyx157cFXyvxE8pj-15" target="My8QOyx157cFXyvxE8pj-4">
          <mxGeometry relative="1" as="geometry" />
        </mxCell>
        <mxCell id="My8QOyx157cFXyvxE8pj-15" value="前端判断权限并控制显示" style="whiteSpace=wrap;html=1;rounded=0;" vertex="1" parent="1">
          <mxGeometry x="840" y="230" width="120" height="60" as="geometry" />
        </mxCell>
      </root>
    </mxGraphModel>
  </diagram>
</mxfile>
